<svg width="117" height="30" viewBox="0 0 117 30" fill="none" xmlns="http://www.w3.org/2000/svg">
<path d="M101.657 29.002L98.6602 4.83203H101.786L103.043 16.9331L103.478 21.7832H103.607L104.187 16.917L105.895 4.83203H106.91H108.473H109.166L110.938 16.627L111.615 21.7832H111.728L112.147 16.627L113.323 4.83203H116.401L113.42 29.002H110.084L107.651 10.4072L104.864 29.002H101.657Z" fill="white"/>
<path d="M88.0444 29.2891C86.8628 29.2891 85.9014 29.0903 85.1602 28.6929C84.4297 28.2954 83.8657 27.7314 83.4683 27.001C83.0815 26.2598 82.813 25.3735 82.6626 24.3423C82.5229 23.311 82.4531 22.167 82.4531 20.9102V12.1606C82.4531 11.0327 82.5498 10.0015 82.7432 9.06689C82.9365 8.13232 83.248 7.32666 83.6777 6.6499C84.1182 5.97314 84.709 5.45215 85.4502 5.08691C86.1914 4.72168 87.1099 4.53906 88.2056 4.53906C89.3228 4.53906 90.2358 4.72705 90.9448 5.10303C91.6538 5.46826 92.1963 5.99463 92.5723 6.68213C92.959 7.35889 93.2275 8.17529 93.3779 9.13135C93.5283 10.0767 93.6035 11.1294 93.6035 12.2896V17.1074H86.1914V21.8931C86.1914 23.2681 86.2881 24.3369 86.4814 25.0996C86.6855 25.8623 87.228 26.2437 88.1089 26.2437C88.689 26.2437 89.1025 26.0664 89.3496 25.7119C89.6074 25.3467 89.7632 24.8418 89.8169 24.1973C89.8706 23.542 89.8975 22.7847 89.8975 21.9253V19.895H93.5552V21.0391C93.5552 22.3066 93.4907 23.4507 93.3618 24.4712C93.2329 25.4917 92.9805 26.3618 92.6045 27.0815C92.2393 27.7905 91.6914 28.3384 90.9609 28.7251C90.2305 29.1011 89.2583 29.2891 88.0444 29.2891ZM86.1753 14.7549H89.8975V11.6611C89.8975 10.7695 89.8599 10.0176 89.7847 9.40527C89.7202 8.78223 89.5698 8.31494 89.3335 8.00342C89.0972 7.69189 88.7158 7.53613 88.1895 7.53613C87.5879 7.53613 87.1421 7.71875 86.8521 8.08398C86.562 8.44922 86.374 8.94873 86.2881 9.58252C86.2129 10.2163 86.1753 10.9468 86.1753 11.7739V14.7549Z" fill="white"/>
<path d="M69.4531 28.999V4.8291H73.1753V7.52002C73.4546 6.58545 73.938 5.85498 74.6255 5.32861C75.3237 4.80225 76.21 4.53906 77.2842 4.53906C77.3057 4.53906 77.3164 4.7002 77.3164 5.02246C77.3271 5.33398 77.3325 5.69385 77.3325 6.10205C77.3325 6.51025 77.3325 6.87549 77.3325 7.19775C77.3325 7.52002 77.3325 7.68115 77.3325 7.68115C76.8276 7.68115 76.3013 7.74023 75.7534 7.8584C75.2163 7.97656 74.7168 8.17529 74.2549 8.45459C73.8037 8.72314 73.4438 9.08838 73.1753 9.55029V28.999H69.4531Z" fill="white"/>
<path d="M58.3379 29.2261C57.6504 29.2261 57.0112 29.0488 56.4204 28.6943C55.8296 28.3291 55.3623 27.7222 55.0186 26.8735V29.0005H51.3125V0.367188H55.0186V6.66748C55.2334 6.00146 55.6362 5.48047 56.2271 5.10449C56.8286 4.72852 57.4463 4.54053 58.0801 4.54053C59.3154 4.52979 60.2607 4.85205 60.916 5.50732C61.5713 6.1626 62.0225 7.05957 62.2695 8.19824C62.5166 9.32617 62.6401 10.6099 62.6401 12.0493V21.7334C62.6401 23.1514 62.5166 24.4297 62.2695 25.5684C62.0332 26.6963 61.6035 27.5879 60.9805 28.2432C60.3682 28.8984 59.4873 29.2261 58.3379 29.2261ZM57.0972 26.229C57.8813 26.2183 58.3809 25.8369 58.5957 25.085C58.8105 24.3223 58.918 23.1514 58.918 21.5723V11.7593C58.918 10.9321 58.8804 10.207 58.8052 9.58398C58.73 8.96094 58.5688 8.47754 58.3218 8.13379C58.0747 7.7793 57.6826 7.60205 57.1455 7.60205C56.6836 7.60205 56.2915 7.70947 55.9692 7.92432C55.6577 8.13916 55.4214 8.54736 55.2603 9.14893C55.0991 9.75049 55.0186 10.626 55.0186 11.7754V21.6367C55.0186 23.1406 55.1475 24.2847 55.4053 25.0688C55.6631 25.8423 56.2271 26.229 57.0972 26.229Z" fill="white"/>
<path d="M32.6367 28.9995V4.82959H36.3428V7.47217C36.5576 6.69873 37.0142 6.0166 37.7124 5.42578C38.4106 4.82422 39.2539 4.52344 40.2422 4.52344C41.5312 4.52344 42.5142 4.96924 43.1909 5.86084C43.8784 6.75244 44.2222 8.07373 44.2222 9.82471V28.9995H40.5161V9.95361C40.5161 9.15869 40.3389 8.56787 39.9844 8.18115C39.6299 7.78369 39.1626 7.58496 38.5825 7.58496C38.1421 7.58496 37.75 7.69238 37.4062 7.90723C37.0625 8.12207 36.7993 8.43896 36.6167 8.85791C36.4341 9.26611 36.3428 9.77637 36.3428 10.3887V28.9995H32.6367Z" fill="#C7A17A"/>
<path d="M20.6382 29.2891C19.4565 29.2891 18.4951 29.0903 17.7539 28.6929C17.0234 28.2954 16.4595 27.7314 16.062 27.001C15.6753 26.2598 15.4067 25.3735 15.2563 24.3423C15.1167 23.311 15.0469 22.167 15.0469 20.9102V12.1606C15.0469 11.0327 15.1436 10.0015 15.3369 9.06689C15.5303 8.13232 15.8418 7.32666 16.2715 6.6499C16.7119 5.97314 17.3027 5.45215 18.0439 5.08691C18.7852 4.72168 19.7036 4.53906 20.7993 4.53906C21.9165 4.53906 22.8296 4.72705 23.5386 5.10303C24.2476 5.46826 24.79 5.99463 25.166 6.68213C25.5527 7.35889 25.8213 8.17529 25.9717 9.13135C26.1221 10.0767 26.1973 11.1294 26.1973 12.2896V17.1074H18.7852V21.8931C18.7852 23.2681 18.8818 24.3369 19.0752 25.0996C19.2793 25.8623 19.8218 26.2437 20.7026 26.2437C21.2827 26.2437 21.6963 26.0664 21.9434 25.7119C22.2012 25.3467 22.3569 24.8418 22.4106 24.1973C22.4644 23.542 22.4912 22.7847 22.4912 21.9253V19.895H26.1489V21.0391C26.1489 22.3066 26.0845 23.4507 25.9556 24.4712C25.8267 25.4917 25.5742 26.3618 25.1982 27.0815C24.833 27.7905 24.2852 28.3384 23.5547 28.7251C22.8242 29.1011 21.8521 29.2891 20.6382 29.2891ZM18.769 14.7549H22.4912V11.6611C22.4912 10.7695 22.4536 10.0176 22.3784 9.40527C22.314 8.78223 22.1636 8.31494 21.9272 8.00342C21.6909 7.69189 21.3096 7.53613 20.7832 7.53613C20.1816 7.53613 19.7358 7.71875 19.4458 8.08398C19.1558 8.44922 18.9678 8.94873 18.8818 9.58252C18.8066 10.2163 18.769 10.9468 18.769 11.7739V14.7549Z" fill="#C7A17A"/>
<path d="M0.0625 29V25.7129L5.92773 3.81494H0.594238V0.640625H9.82715V3.58936L3.96191 25.8257H9.69824V29H0.0625Z" fill="#C7A17A"/>
</svg>
