<svg width="50" height="50" viewBox="0 0 50 50" fill="none" xmlns="http://www.w3.org/2000/svg">
<path d="M25.7753 5.1544V1.54903H34.2787V0H24.2264V5.1544H12.8867V46.9074H16.4948V50H33.507V46.9074H37.1151V5.1544H25.7753ZM25.7753 6.70343H35.566V20.4839C35.2009 20.34 34.9261 20.0905 34.5935 19.788C33.9896 19.2391 33.238 18.5557 31.8046 18.5557C30.3653 18.5557 29.6114 19.2397 29.0054 19.7891C28.4752 20.27 28.0922 20.6174 27.2584 20.6174C26.5678 20.6174 26.1865 20.3788 25.7753 20.0237V6.70343ZM14.4357 6.70343H24.2264V18.8662C23.8215 18.6809 23.3346 18.5557 22.7227 18.5557C21.2874 18.5557 20.5361 19.2403 19.9323 19.7904C19.4054 20.2705 19.0246 20.6174 18.197 20.6174C17.3624 20.6174 16.9797 20.2695 16.45 19.7879C15.9657 19.3476 15.3855 18.8218 14.4356 18.6305V6.70343H14.4357ZM35.5661 45.3585H31.9579V48.451H18.0439V46.9074H27.0626V45.3584H14.4357V20.2383C14.8007 20.3823 15.0755 20.6319 15.4082 20.9342C16.0121 21.4831 16.7637 22.1665 18.1972 22.1665C19.6246 22.1665 20.3737 21.4839 20.9757 20.9355C21.5049 20.4533 21.8873 20.1048 22.7227 20.1048C23.5572 20.1048 23.9399 20.4528 24.4697 20.9343C25.0736 21.4832 25.8251 22.1666 27.2585 22.1666C28.6902 22.1666 29.442 21.4847 30.0462 20.9368C30.5786 20.4538 30.9632 20.1049 31.8046 20.1049C32.6391 20.1049 33.0218 20.4529 33.5516 20.9344C34.036 21.3747 34.6162 21.9005 35.5661 22.0918V45.3585Z" fill="#c7a17a"/>
<path d="M24.1441 23.8105L16.8047 26.5099L19.4911 33.8492L26.8434 31.1628L24.1441 23.8105ZM18.7909 27.4298L23.2241 25.7993L24.8545 30.2403L20.4136 31.863L18.7909 27.4298Z" fill="#c7a17a"/>
<path d="M25.3102 34.0508L22.1445 40.901L28.9824 44.0669L32.1481 37.2297L25.3102 34.0508ZM28.2275 42.0104L24.1999 40.1455L26.0649 36.1098L30.0925 37.9822L28.2275 42.0104Z" fill="#c7a17a"/>
<path d="M16.5 8.75977V13.6576H18.0489V10.3088H20.8825V8.75977H16.5Z" fill="#c7a17a"/>
<path d="M30.1555 25.2578H28.0938V26.8068H30.1555V25.2578Z" fill="#c7a17a"/>
<path d="M32.2141 28.3516H30.1523V29.9006H32.2141V28.3516Z" fill="#c7a17a"/>
<path d="M33.2492 24.2227H31.1875V25.7717H33.2492V24.2227Z" fill="#c7a17a"/>
<path d="M18.8234 41.75H16.7617V43.299H18.8234V41.75Z" fill="#c7a17a"/>
<path d="M20.8742 38.6582H18.8125V40.2072H20.8742V38.6582Z" fill="#c7a17a"/>
<path d="M17.7883 36.5996H15.7266V38.1486H17.7883V36.5996Z" fill="#c7a17a"/>
</svg>
