<svg width="51" height="51" viewBox="0 0 51 51" fill="none" xmlns="http://www.w3.org/2000/svg">
<g clip-path="url(#clip0_181_1758)">
<path d="M19.0611 37.7609C12.844 36.7102 9.69162 33.2075 8.37811 26.2023C8.29056 25.7645 7.76512 25.4142 7.32731 25.5018C6.88951 25.5893 6.53924 26.1148 6.62678 26.5526C8.02784 34.3459 11.7931 38.2864 18.7109 39.5123C18.7984 39.5123 18.7984 39.5123 18.886 39.5123C19.3238 39.5123 19.6741 39.2495 19.7617 38.8117C19.8492 38.2863 19.4989 37.8485 19.0611 37.7609Z" fill="#c7a17a"/>
<path d="M45.4212 42.1395H34.7182C37.435 41.0532 39.515 39.5086 41.1023 37.64C47.5924 36.6687 50.5001 31.3098 50.5001 26.3776C50.5001 22.8813 48.5531 19.9622 46.0335 19.4518C46.0337 19.4253 46.034 19.3988 46.0342 19.3724C46.0342 18.9346 45.859 18.4968 45.5089 18.1465C45.2461 17.7963 44.7208 17.6212 44.283 17.6212H40.737C40.3319 13.4689 37.0753 10.1497 32.8993 9.74028C32.4615 5.36202 28.6962 1.85938 24.1427 1.85938C19.5893 1.85938 15.824 5.27448 15.3861 9.74028C11.2919 10.1497 7.96415 13.4689 7.54945 17.6212H4.00265C3.56484 17.6212 3.03939 17.7964 2.77677 18.1465C2.4265 18.4968 2.25142 18.9346 2.25142 19.3724C2.31927 28.7308 3.96287 38.2992 13.5674 42.1395H2.77667C1.55079 42.1395 0.5 43.1903 0.5 44.4162C0.5 45.467 1.20053 46.255 2.51405 46.5178L13.5473 47.3934C13.9851 47.3934 14.5106 47.6561 14.5981 47.8312L14.6857 47.9187C14.9484 48.4441 15.2987 49.1446 16.437 49.1446H30.9729C32.1113 49.1446 32.4615 48.4441 32.5491 47.9187L32.6366 47.8312C32.7241 47.656 33.2496 47.3934 33.6874 47.3934L45.6839 46.5178H45.7715C46.9974 46.255 47.6979 45.467 47.6979 44.4162C47.6979 43.1903 46.7347 42.1395 45.4212 42.1395ZM48.6611 26.3777C48.6611 29.7928 47.085 33.9083 42.7066 35.3969C45.3336 31.1062 45.859 25.8523 46.0341 21.2988C47.5228 21.8243 48.6611 23.9259 48.6611 26.3777ZM16.2618 11.4915C16.7872 11.4915 17.1374 11.1412 17.1374 10.6159C17.1374 6.76298 20.2898 3.6106 24.1427 3.6106C27.9956 3.6106 31.148 6.76298 31.148 10.6159C31.148 11.1413 31.4983 11.4915 32.0236 11.4915C35.5263 11.4915 38.5035 14.2061 38.9413 17.6211H24.1427H9.34416C9.78196 14.206 12.6716 11.4915 16.2618 11.4915ZM4.00265 19.3724H8.3809H24.1427H39.9045H44.2828C44.1952 31.1938 41.6558 42.1395 24.1427 42.1395C6.62958 42.1395 4.09019 31.1938 4.00265 19.3724ZM45.5963 44.7664L33.6874 45.6421C33.0744 45.7296 31.761 46.0799 31.2355 47.0431L31.148 47.1307C31.0605 47.2182 30.9728 47.3057 30.9728 47.3934H16.3493C16.3493 47.3058 16.2618 47.2182 16.2618 47.0431L16.1743 46.9556C15.7365 45.9923 14.3354 45.7297 13.7224 45.6421L2.68913 44.7664C2.25132 44.6789 2.25132 44.5037 2.25132 44.4162C2.25132 44.1535 2.51405 43.8908 2.77667 43.8908H45.5088C45.7715 43.8908 46.0341 44.1536 46.0341 44.4162C46.0342 44.5037 46.0342 44.6789 45.5963 44.7664Z" fill="#c7a17a"/>
</g>
<defs>
<clipPath id="clip0_181_1758">
<rect width="50" height="50" fill="white" transform="translate(0.5 0.5)"/>
</clipPath>
</defs>
</svg>
