<svg width="50" height="50" viewBox="0 0 50 50" fill="none" xmlns="http://www.w3.org/2000/svg">
<path d="M24.9991 29.0117C21.7191 29.0117 19.0508 31.6803 19.0508 34.9604C19.0508 38.2402 21.7192 40.9087 24.9991 40.9087C28.2791 40.9087 30.9476 38.2402 30.9476 34.9605C30.9476 31.6803 28.279 29.0117 24.9991 29.0117ZM24.9991 39.4236C22.538 39.4236 20.5357 37.4214 20.5357 34.9604C20.5357 32.4991 22.538 30.4967 24.9991 30.4967C27.4603 30.4967 29.4626 32.4991 29.4626 34.9604C29.4626 37.4214 27.4602 39.4236 24.9991 39.4236Z" fill="#c7a17a"/>
<path d="M25.0019 31.9824C23.3596 31.9824 22.0234 33.3188 22.0234 34.9611C22.0234 36.6033 23.3596 37.9395 25.0019 37.9395C26.6441 37.9395 27.9804 36.6033 27.9804 34.9611C27.9803 33.3188 26.6441 31.9824 25.0019 31.9824ZM25.0019 36.4545C24.1784 36.4545 23.5084 35.7846 23.5084 34.9611C23.5084 34.1376 24.1783 33.4674 25.0019 33.4674C25.8253 33.4674 26.4953 34.1375 26.4953 34.9611C26.4953 35.7846 25.8253 36.4545 25.0019 36.4545Z" fill="#c7a17a"/>
<path d="M19.1332 26.4199H10.2539V27.9049H19.1332V26.4199Z" fill="#c7a17a"/>
<path d="M47.6326 24.9348V19.9183H41.4875C41.1073 14.9864 36.9728 11.0896 31.945 11.0896H25.7424V9.04297H28.2667V7.55801H8.67402V5.51113H11.0762C12.3161 5.51113 13.3249 4.50234 13.3249 3.2624V2.24873C13.3249 1.00879 12.3161 0 11.0762 0H4.78691C3.54697 0 2.53818 1.00879 2.53818 2.24873V3.2624C2.53818 4.50234 3.54697 5.51113 4.78691 5.51113H7.18906V7.55791H4.66475V9.04297H24.2574V11.0896H18.0548C13.0271 11.0896 8.89258 14.9863 8.5123 19.9183H2.36719V24.9348H6.54004V44.9834H2.36719V50H47.6326V44.9834H43.4599V24.9348H47.6326ZM4.78691 4.02617C4.36572 4.02607 4.02314 3.6835 4.02314 3.2624V2.24873C4.02314 1.82754 4.36582 1.48496 4.78691 1.48496H11.0762C11.4974 1.48496 11.8399 1.82764 11.8399 2.24873V3.2624C11.8399 3.68359 11.4973 4.02617 11.0762 4.02617H4.78691ZM18.0548 12.5747H31.9451C36.1534 12.5747 39.6212 15.8064 39.9974 19.9183H10.0025C10.3787 15.8064 13.8465 12.5747 18.0548 12.5747ZM46.1477 46.4684V48.5149H3.85215V46.4684H8.025H41.9749H46.1477ZM41.9749 23.4498H36.4839V24.9348H41.9749V44.9834H41.9748H8.025V24.9348H34.5037V23.4498H8.025H3.85215V21.4033H8.48379H41.5161H46.1477V23.4498H41.9749Z" fill="#c7a17a"/>
<path d="M11.8281 18.4643L13.2283 18.9593C13.9506 16.9162 15.8899 15.5436 18.0539 15.5436V14.0586C15.2617 14.0585 12.7598 15.829 11.8281 18.4643Z" fill="#c7a17a"/>
</svg>
