<svg width="50" height="50" viewBox="0 0 50 50" fill="none" xmlns="http://www.w3.org/2000/svg">
<path d="M43.3737 14.1951H39.6009L38.2877 8.94258C38.2005 8.59404 37.8874 8.34961 37.5282 8.34961H12.4761C12.1169 8.34961 11.8037 8.59404 11.7166 8.94258L10.4034 14.1951H6.63057C6.19814 14.1951 5.84766 14.5456 5.84766 14.978V21.6586C5.84766 22.0909 6.19805 22.4415 6.63057 22.4415H9.37295L12.5336 49.3075C12.58 49.7018 12.9142 49.9989 13.311 49.9989H36.6931C37.09 49.9989 37.4242 49.7018 37.4705 49.3075L38.7477 38.4516C38.7981 38.0222 38.4911 37.6331 38.0616 37.5825C37.6324 37.532 37.2431 37.8391 37.1928 38.2686L36.5803 43.4748H13.424L11.8397 30.0093H38.1645L37.5857 34.9282C37.5353 35.3576 37.8423 35.7467 38.2718 35.7973C38.3029 35.8009 38.3337 35.8027 38.3643 35.8027C38.7557 35.8027 39.0939 35.5097 39.1406 35.1113L40.6313 22.4416H43.3737C43.8062 22.4416 44.1566 22.0911 44.1566 21.6587V14.9781C44.1566 14.5457 43.8061 14.1951 43.3737 14.1951ZM36.3961 45.0406L35.9971 48.4331H14.0072L13.6082 45.0406H36.3961ZM13.0872 9.91543H36.917L37.9869 14.1952H22.4447V11.6378C22.4447 11.2055 22.0943 10.8549 21.6618 10.8549H14.9813C14.5488 10.8549 14.1983 11.2054 14.1983 11.6378V14.1952H12.0174L13.0872 9.91543ZM20.879 12.4206V14.1951H15.7642V12.4206H20.879ZM42.5908 20.8757H19.1566C18.7242 20.8757 18.3737 21.2262 18.3737 21.6586C18.3737 22.091 18.7241 22.4415 19.1566 22.4415H39.0549L38.3487 28.4436H11.6556L10.9494 22.4415H14.9813C15.4137 22.4415 15.7642 22.091 15.7642 21.6586C15.7642 21.2262 15.4138 20.8757 14.9813 20.8757H7.41338V15.7608H42.5908V20.8757Z" fill="#c7a17a"/>
<path d="M25.7377 4.41057C26.328 3.50452 27.316 1.98801 25.5574 0.229321C25.2515 -0.0764404 24.7559 -0.0764404 24.4501 0.229321C24.1444 0.535083 24.1444 1.03079 24.4501 1.33645C25.2779 2.16418 25.0553 2.58938 24.4258 3.55579C23.8943 4.37151 23.0048 5.73674 24.45 7.18196C24.7685 7.50032 25.3061 7.47893 25.5989 7.13704C25.8612 6.83069 25.8423 6.35979 25.5574 6.07483C25.0539 5.57131 25.1292 5.34446 25.7377 4.41057Z" fill="#c7a17a"/>
<path d="M31.6557 4.41057C32.2459 3.50452 33.2339 1.98801 31.4753 0.229321C31.1695 -0.0764404 30.6739 -0.0764404 30.3681 0.229321C30.0623 0.535083 30.0623 1.03079 30.3681 1.33645C31.1958 2.16418 30.9733 2.58938 30.3438 3.55579C29.8123 4.37151 28.9228 5.73674 30.368 7.18196C30.6865 7.50032 31.2241 7.47893 31.5168 7.13704C31.7791 6.83069 31.7603 6.35979 31.4753 6.07483C30.9718 5.57131 31.0472 5.34446 31.6557 4.41057Z" fill="#c7a17a"/>
<path d="M19.9487 4.41057C20.5389 3.50452 21.5269 1.98801 19.7683 0.229321C19.4624 -0.0764404 18.9668 -0.0764404 18.6611 0.229321C18.3553 0.535083 18.3553 1.03079 18.6611 1.33645C19.4888 2.16418 19.2663 2.58938 18.6368 3.55579C18.1052 4.37151 17.2158 5.73674 18.661 7.18196C18.9794 7.50032 19.517 7.47893 19.8098 7.13704C20.0721 6.83069 20.0533 6.35979 19.7683 6.07483C19.2648 5.57131 19.3402 5.34446 19.9487 4.41057Z" fill="#c7a17a"/>
</svg>
